<?xml version="1.0" encoding="UTF-8" standalone="no"?>
<svg width="21px" height="21px" viewBox="0 0 21 21" version="1.1" xmlns="http://www.w3.org/2000/svg" xmlns:xlink="http://www.w3.org/1999/xlink" xmlns:sketch="http://www.bohemiancoding.com/sketch/ns">
    <!-- Generator: Sketch 3.3.2 (12043) - http://www.bohemiancoding.com/sketch -->
    <title>Icon</title>
    <desc>Created with Sketch.</desc>
    <defs></defs>
    <g id="Works" stroke="none" stroke-width="1" fill="none" fill-rule="evenodd" sketch:type="MSPage">
        <g id="Deskstop-&gt;-Menu" sketch:type="MSArtboardGroup" transform="translate(-1394.000000, -19.000000)" stroke="#979797" fill="#8E8E93">
            <g id="Works" sketch:type="MSLayerGroup" transform="translate(828.000000, 0.000000)">
                <path d="M576.292627,29.9997338 L568.028317,38.2640443 C567.710605,38.5817562 567.295754,38.6805302 567.100239,38.4850152 C566.904724,38.2895002 567.004072,37.8740749 567.32121,37.5569375 L575.58552,29.292627 L567.32121,21.0283165 C567.004072,20.7111791 566.904724,20.2957539 567.100239,20.1002389 C567.295754,19.9047238 567.711179,20.0040723 568.028317,20.3212097 L576.292627,28.5855202 L584.556938,20.3212097 C584.874075,20.0040723 585.2895,19.9047238 585.485015,20.1002389 C585.68053,20.2957539 585.581182,20.7111791 585.264044,21.0283165 L576.999734,29.292627 L585.264044,37.5569375 C585.581756,37.8746494 585.68053,38.2895002 585.485015,38.4850152 C585.2895,38.6805302 584.874075,38.5811817 584.556938,38.2640443 L576.292627,29.9997338 Z" id="Icon" sketch:type="MSShapeGroup"></path>
            </g>
        </g>
    </g>
</svg>