<?xml version="1.0" encoding="UTF-8" standalone="no"?>
<svg width="102px" height="19px" viewBox="0 0 102 19" version="1.1" xmlns="http://www.w3.org/2000/svg" xmlns:xlink="http://www.w3.org/1999/xlink" xmlns:sketch="http://www.bohemiancoding.com/sketch/ns">
    <g id="Lab" stroke="none" stroke-width="1" fill-rule="evenodd" sketch:type="MSPage">
        <g id="iPhone-6-&gt;-Full" sketch:type="MSArtboardGroup" transform="translate(-141.000000, -814.000000)">
            <g id="Works" sketch:type="MSLayerGroup" transform="translate(-1.000000, 0.000000)">
                <g id="Items" transform="translate(32.000000, 194.000000)" sketch:type="MSShapeGroup">
                    <g id="Item" transform="translate(4.000000, 363.000000)">
                        <g id="Codepen-Logo" transform="translate(106.500000, 257.000000)">
                            <g id="Group-16">
                                <path d="M6.40778811,4.74585 C7.53987063,4.74585 8.57806238,5.1626 9.38361092,5.8531 L10.479657,4.52085 C9.37748228,3.57585 7.9571085,3.0056 6.40778811,3.0056 C2.9125017,3.0056 0.0690575243,5.90535 0.0690575243,9.46985 C0.0690575243,13.0341 2.9125017,15.93385 6.40778811,15.93385 C7.9571085,15.93385 9.37748228,15.36335 10.479657,14.4186 L9.38361092,13.0861 C8.57806238,13.77635 7.53987063,14.19335 6.40778811,14.19335 C3.85361578,14.19335 1.77551626,12.07435 1.77551626,9.46985 C1.77551626,6.8651 3.85361578,4.74585 6.40778811,4.74585 Z M41.4968796,13.8208 L38.9370689,13.8208 L38.9370689,5.1188 L41.4968796,5.1188 C43.8495422,5.1188 45.7633942,7.0708 45.7633942,9.4698 C45.7633942,11.8688 43.8495422,13.8208 41.4968796,13.8208 Z M41.4968796,3.37855 L38.083717,3.37855 C37.6125471,3.37855 37.2306102,3.7683 37.2306102,4.24855 L37.2306102,14.6908 C37.2306102,15.1713 37.6125471,15.56105 38.083717,15.56105 L41.4968796,15.56105 C44.7906563,15.56105 47.4698529,12.82855 47.4698529,9.4698 C47.4698529,6.11105 44.7906563,3.37855 41.4968796,3.37855 Z M52.0903333,4.24865 L52.0903333,14.6909 C52.0903333,15.1714 52.4725153,15.56115 52.94344,15.56115 L60.0543794,15.56115 L60.0543794,13.8209 L53.7970371,13.8209 L53.7970371,10.3399 L57.7789376,10.3399 L57.7789376,8.59965 L53.7970371,8.59965 L53.7970371,5.1189 L60.0543794,5.1189 L60.0543794,3.37865 L52.94344,3.37865 C52.4725153,3.37865 52.0903333,3.76815 52.0903333,4.24865 Z M77.9196859,4.24865 L77.9196859,14.6909 C77.9196859,15.1714 78.301868,15.56115 78.7727927,15.56115 L85.8834869,15.56115 L85.8834869,13.8209 L79.6261447,13.8209 L79.6261447,10.3399 L83.6082903,10.3399 L83.6082903,8.59965 L79.6261447,8.59965 L79.6261447,5.1189 L85.8834869,5.1189 L85.8834869,3.37865 L78.7727927,3.37865 C78.301868,3.37865 77.9196859,3.76815 77.9196859,4.24865 Z M69.7989917,8.5996 L66.954567,8.5996 L66.954567,5.11885 L69.7989917,5.11885 C70.7401058,5.11885 71.5054505,5.8996 71.5054505,6.85935 C71.5054505,7.81885 70.7401058,8.5996 69.7989917,8.5996 Z M69.7989917,3.3786 L66.101215,3.3786 C65.6300451,3.3786 65.2481083,3.7681 65.2481083,4.2486 L65.2481083,15.5611 L66.954567,15.5611 L66.954567,10.33985 L69.7989917,10.33985 C71.6809748,10.33985 73.2121544,8.77835 73.2121544,6.85935 C73.2121544,4.93985 71.6809748,3.3786 69.7989917,3.3786 Z M99.2243612,3.37855 L99.2243612,12.28755 L92.2004485,3.69155 C91.9702568,3.4098 91.5919971,3.30555 91.2541864,3.43055 C90.9163757,3.5553 90.691332,3.8823 90.691332,4.24855 L90.691332,15.56105 L92.3980359,15.56105 L92.3980359,6.6523 L99.4221937,15.24805 C99.5874218,15.4503 99.8293806,15.56105 100.077713,15.56105 C100.175036,15.56105 100.273094,15.54455 100.368211,15.5093 C100.706021,15.3843 100.931065,15.0573 100.931065,14.69105 L100.931065,3.37855 L99.2243612,3.37855 Z M27.467808,8.510125 L24.0764633,6.197125 L24.0764633,2.476125 L30.2055944,6.642875 L27.467808,8.510125 Z M28.8746988,9.469875 L30.8319415,8.134875 L30.8319415,10.804625 L28.8746988,9.469875 Z M24.0764633,12.742625 L27.467808,10.429625 L30.2055944,12.296875 L24.0764633,16.463625 L24.0764633,12.742625 Z M19.1208444,10.429625 L22.5121891,12.742625 L22.5121891,16.463625 L16.3833032,12.296875 L19.1208444,10.429625 Z M17.7139536,9.469875 L15.7569561,10.804625 L15.7569561,8.134875 L17.7139536,9.469875 Z M22.5121891,6.197125 L19.1208444,8.510125 L16.3833032,6.642875 L22.5121891,2.476125 L22.5121891,6.197125 Z M23.2944488,11.356875 L20.5277352,9.469875 L23.2944488,7.582625 L26.0611624,9.469875 L23.2944488,11.356875 Z M32.3829779,6.503125 C32.3788104,6.480375 32.3751333,6.458125 32.3692498,6.436125 C32.3655726,6.422875 32.36116,6.410375 32.3569925,6.397375 C32.3508638,6.377875 32.3447352,6.358375 32.3368905,6.339125 C32.3314973,6.326125 32.3253687,6.313125 32.3194852,6.300375 C32.3111502,6.282375 32.3025701,6.264625 32.2927643,6.247375 C32.2856551,6.234625 32.2780556,6.222625 32.2704561,6.210375 C32.2599148,6.193875 32.2491284,6.177625 32.2373614,6.161875 C32.2287813,6.150375 32.2199561,6.138875 32.2106405,6.127625 C32.1983833,6.112625 32.1851454,6.098375 32.1716624,6.084375 C32.1613663,6.073625 32.1510701,6.063125 32.1405289,6.053125 C32.1263104,6.040125 32.1113566,6.027625 32.0961575,6.015375 C32.0843905,6.006125 32.0728687,5.996625 32.0606114,5.988125 C32.0564439,5.984875 32.0522765,5.981125 32.0478638,5.978125 L23.7281114,0.321875 C23.4655604,0.143125 23.123092,0.143125 22.860541,0.321875 L14.5410337,5.978125 C14.536376,5.981125 14.5324536,5.984875 14.528041,5.988125 C14.5157837,5.996625 14.5042619,6.006125 14.4924949,6.015375 C14.477541,6.027625 14.462342,6.040125 14.4483687,6.053125 C14.4375823,6.063125 14.4272862,6.073625 14.4172352,6.084375 C14.403507,6.098375 14.3905143,6.112625 14.3780119,6.127625 C14.3686964,6.138875 14.3598711,6.150375 14.351291,6.161875 C14.339524,6.177625 14.3287376,6.193875 14.3181964,6.210375 C14.3105968,6.222625 14.3029973,6.234625 14.2961333,6.247375 C14.2860823,6.264625 14.2775022,6.282375 14.2694124,6.300375 C14.2635289,6.313125 14.2571551,6.326125 14.252007,6.339125 C14.2444075,6.358375 14.2377886,6.377875 14.23166,6.397375 C14.2274925,6.410375 14.2230799,6.422875 14.2196478,6.436125 C14.2140095,6.458125 14.209842,6.480375 14.2059197,6.503125 C14.2039585,6.514625 14.2012619,6.525875 14.1995459,6.537375 C14.1951333,6.571875 14.1926818,6.606625 14.1926818,6.641625 L14.1926818,12.297875 C14.1926818,12.333125 14.1951333,12.367625 14.1995459,12.402125 C14.2012619,12.413875 14.2039585,12.425125 14.2059197,12.436625 C14.209842,12.458875 14.2140095,12.481375 14.2196478,12.503375 C14.2230799,12.516625 14.2274925,12.529375 14.23166,12.542125 C14.2377886,12.561875 14.2444075,12.581375 14.252007,12.600625 C14.2571551,12.613875 14.2635289,12.626375 14.2694124,12.639125 C14.2775022,12.657125 14.2860823,12.674875 14.2961333,12.692375 C14.3029973,12.704875 14.3105968,12.717125 14.3181964,12.728875 C14.3287376,12.745625 14.339524,12.761625 14.351291,12.777625 C14.3598711,12.789625 14.3686964,12.800875 14.3780119,12.812125 C14.3905143,12.826875 14.403507,12.841375 14.4172352,12.855125 C14.4272862,12.865625 14.4375823,12.876375 14.4483687,12.886125 C14.462342,12.899375 14.477541,12.912125 14.4924949,12.924375 C14.5042619,12.933625 14.5157837,12.942875 14.528041,12.951625 C14.5324536,12.954875 14.536376,12.958375 14.5410337,12.961375 L22.860541,18.617625 C22.9919391,18.707125 23.1429488,18.751875 23.2944488,18.751875 C23.4457036,18.751875 23.5969585,18.707125 23.7281114,18.617625 L32.0478638,12.961375 C32.0522765,12.958375 32.0564439,12.954875 32.0606114,12.951625 C32.0728687,12.942875 32.0843905,12.933625 32.0961575,12.924375 C32.1113566,12.912125 32.1263104,12.899375 32.1405289,12.886125 C32.1510701,12.876375 32.1613663,12.865625 32.1716624,12.855125 C32.1851454,12.841375 32.1983833,12.826875 32.2106405,12.812125 C32.2199561,12.800875 32.2287813,12.789625 32.2373614,12.777625 C32.2491284,12.761625 32.2599148,12.745625 32.2704561,12.728875 C32.2780556,12.717125 32.2856551,12.704875 32.2927643,12.692375 C32.3025701,12.674875 32.3111502,12.657125 32.3194852,12.639125 C32.3253687,12.626375 32.3314973,12.613875 32.3368905,12.600625 C32.3447352,12.581375 32.3508638,12.561875 32.3569925,12.542125 C32.36116,12.529375 32.3655726,12.516625 32.3692498,12.503375 C32.3751333,12.481375 32.3788104,12.458875 32.3829779,12.436625 C32.3849391,12.425125 32.3876357,12.413875 32.3891066,12.402125 C32.3935192,12.367625 32.3962158,12.333125 32.3962158,12.297875 L32.3962158,6.641625 C32.3962158,6.606625 32.3935192,6.571875 32.3891066,6.537375 C32.3876357,6.525875 32.3849391,6.514625 32.3829779,6.503125 L32.3829779,6.503125 Z" id="codepen"></path>
                            </g>
                        </g>
                    </g>
                </g>
            </g>
        </g>
    </g>
</svg>
