<?xml version="1.0" encoding="UTF-8" standalone="no"?>
<svg width="19px" height="19px" viewBox="0 0 19 19" version="1.1" xmlns="http://www.w3.org/2000/svg" xmlns:xlink="http://www.w3.org/1999/xlink" xmlns:sketch="http://www.bohemiancoding.com/sketch/ns">
    <!-- Generator: Sketch 3.3.1 (12005) - http://www.bohemiancoding.com/sketch -->
    <g stroke="none" stroke-width="1" fill-rule="evenodd" sketch:type="MSPage">
        <g sketch:type="MSArtboardGroup" transform="translate(-324.000000, -494.000000)">
            <g sketch:type="MSLayerGroup" transform="translate(-8.000000, 0.000000)">
                <g transform="translate(227.000000, 387.000000)" sketch:type="MSShapeGroup">
                    <g transform="translate(105.500000, 107.000000)">
                        <path d="M8.98626481,18.8967666 C4.03118467,18.8967666 0,14.8709756 0,9.92260627 C0,4.97417422 4.03118467,0.948383275 8.98626481,0.948383275 C13.9412195,0.948383275 17.9724042,4.97417422 17.9724042,9.92260627 C17.9724042,14.8709756 13.9412195,18.8967666 8.98626481,18.8967666 Z M16.5647666,11.1510592 C16.3021672,11.0682718 14.1889547,10.4388362 11.7837282,10.8233589 C12.7876516,13.5784878 13.1961951,15.8223415 13.2748432,16.2886481 C14.9968223,15.1258606 16.2226411,13.2839024 16.5647666,11.1510592 Z M11.9844878,16.9904599 C11.8702787,16.3179373 11.424669,13.9741115 10.3470523,11.1775261 C10.3301812,11.1832962 10.3133101,11.1887526 10.296439,11.1946481 C5.96709408,12.7011916 4.41301045,15.6994774 4.27484321,15.9814564 C5.57629965,16.9949756 7.21185366,17.5996376 8.98626481,17.5996376 C10.0495192,17.5996376 11.0629129,17.382446 11.9844878,16.9904599 Z M3.28383972,15.0595679 C3.45769338,14.7623484 5.56425784,11.2790662 9.52287805,10.0012544 C9.62291289,9.9689547 9.72376307,9.9385993 9.82536585,9.91006272 C9.63263415,9.47455052 9.42278049,9.0385993 9.20301742,8.60917073 C5.36989547,9.75483624 1.6503554,9.70691986 1.31456446,9.70008362 C1.31218118,9.77785366 1.31061324,9.85587456 1.31061324,9.93427178 C1.31061324,11.9030453 2.05789547,13.7005993 3.28383972,15.0595679 Z M1.47280139,8.36432056 C1.81605575,8.36883624 4.97834843,8.38257143 8.56875261,7.43039024 C7.29696167,5.17261324 5.92532404,3.27439721 5.72299652,2.99724739 C3.57560279,4.00875958 1.9704669,5.98568641 1.47280139,8.36432056 Z M7.18751916,2.48202091 C7.39969338,2.76569338 8.79378397,4.66158885 10.0515261,6.96941463 C12.780878,5.94780488 13.9363275,4.39685714 14.0743693,4.2004878 C12.7188502,2.99950523 10.9365366,2.26890592 8.98626481,2.26890592 C8.36692683,2.26890592 7.7647108,2.34310105 7.18751916,2.48202091 Z M14.9276446,5.08687805 C14.7658328,5.30544948 13.479554,6.95216725 10.6416376,8.10924739 C10.8202578,8.47439024 10.9914774,8.84574216 11.1509059,9.21954007 C11.2073519,9.35206272 11.2624181,9.48389547 11.31623,9.61510105 C13.870223,9.29442509 16.4078467,9.80839721 16.6609129,9.86189547 C16.6440418,8.05261324 15.996669,6.39128223 14.9276446,5.08687805 Z" id="Dribbble"></path>
                    </g>
                </g>
            </g>
        </g>
    </g>
</svg>
