<?xml version="1.0" encoding="UTF-8" standalone="no"?>
<svg width="18px" height="18px" viewBox="0 0 18 18" version="1.1" xmlns="http://www.w3.org/2000/svg" xmlns:xlink="http://www.w3.org/1999/xlink" xmlns:sketch="http://www.bohemiancoding.com/sketch/ns">
    <!-- Generator: Sketch 3.3.1 (12005) - http://www.bohemiancoding.com/sketch -->
    <g id="Homepage" stroke="none" stroke-width="1" fill-rule="evenodd" sketch:type="MSPage" >
        <g id="Desktop" sketch:type="MSArtboardGroup" transform="translate(-405.000000, -495.000000)" >
            <g id="Herobanner" sketch:type="MSLayerGroup" transform="translate(-8.000000, 0.000000)">
                <g id="Headline" transform="translate(227.000000, 387.000000)" sketch:type="MSShapeGroup">
                    <g id="Socials" transform="translate(105.500000, 107.000000)">
                        <path d="M89.3843636,1 C84.4785455,1 80.5,4.978 80.5,9.88545455 C80.5,13.8105455 83.0456364,17.1410909 86.5763636,18.316 C87.0209091,18.3978182 87.1829091,18.1234545 87.1829091,17.8878182 C87.1829091,17.6767273 87.1752727,17.1181818 87.1709091,16.3763636 C84.6994545,16.9136364 84.178,15.1856364 84.178,15.1856364 C83.7738182,14.1590909 83.1912727,13.8858182 83.1912727,13.8858182 C82.3845455,13.3343636 83.2523636,13.3458182 83.2523636,13.3458182 C84.1441818,13.4085455 84.6132727,14.2616364 84.6132727,14.2616364 C85.4063636,15.6192727 86.6930909,15.2270909 87.1992727,14.9996364 C87.28,14.4252727 87.5096364,14.0341818 87.7632727,13.8116364 C85.7903636,13.5874545 83.716,12.8254545 83.716,9.42072727 C83.716,8.45036364 84.0623636,7.65727273 84.6307273,7.036 C84.5396364,6.81127273 84.2347273,5.908 84.718,4.68454545 C84.718,4.68454545 85.4641818,4.44563636 87.1610909,5.59545455 C87.8701818,5.39854545 88.63,5.29981818 89.3854545,5.29654545 C90.1403636,5.29981818 90.9001818,5.39854545 91.6103636,5.59545455 C93.3061818,4.44563636 94.0512727,4.68454545 94.0512727,4.68454545 C94.5356364,5.908 94.2307273,6.81127273 94.1396364,7.036 C94.7090909,7.65727273 95.0527273,8.45036364 95.0527273,9.42072727 C95.0527273,12.8336364 92.9756364,13.5847273 90.9961818,13.8050909 C91.3152727,14.0794545 91.5989091,14.6216364 91.5989091,15.4501818 C91.5989091,16.6381818 91.5885455,17.5965455 91.5885455,17.8878182 C91.5885455,18.1256364 91.7483636,18.4016364 92.1994545,18.3149091 C95.7269091,17.1378182 98.2703636,13.81 98.2703636,9.88545455 C98.2703636,4.978 94.2918182,1 89.3843636,1" id="GitHub"></path>
                    </g>
                </g>
            </g>
        </g>
    </g>
</svg>
