<?xml version="1.0" encoding="UTF-8" standalone="no"?>
<svg width="57px" height="16px" viewBox="0 0 57 16" version="1.1" xmlns="http://www.w3.org/2000/svg" xmlns:xlink="http://www.w3.org/1999/xlink" xmlns:sketch="http://www.bohemiancoding.com/sketch/ns">
    <g id="Lab" stroke="none" stroke-width="1" fill-rule="evenodd" sketch:type="MSPage">
        <g id="Deskstop-&gt;-Menu" sketch:type="MSArtboardGroup" transform="translate(-1106.000000, -463.000000)">
            <g id="Lab" sketch:type="MSLayerGroup" transform="translate(828.000000, 0.000000)">
                <g id="Items" transform="translate(147.500000, 198.000000)" sketch:type="MSShapeGroup">
                    <g id="Item">
                        <g id="GitHub-Logo" transform="translate(130.500000, 265.000000)">
                            <path d="M11.2858339,6.60685506 L6.58002599,6.60685506 C6.45863769,6.60685506 6.36010445,6.70550491 6.36010445,6.8268932 L6.36010445,9.12767364 C6.36010445,9.24906194 6.45863769,9.3478284 6.58002599,9.3478284 L8.41577615,9.3478284 L8.41577615,12.206342 C8.41577615,12.206342 8.00356902,12.3468539 6.86396498,12.3468539 C5.51948176,12.3468539 3.64128651,11.855587 3.64128651,7.72558637 C3.64128651,3.59465293 5.59702568,3.05114588 7.43312566,3.05114588 C9.0224844,3.05114588 9.70720301,3.33100361 10.1428482,3.46580176 C10.2797453,3.50778042 10.4063809,3.37146638 10.4063809,3.24996148 L10.9313474,1.02695817 C10.9313474,0.970170372 10.9121072,0.901721833 10.8472735,0.855195484 C10.6703801,0.729026287 9.59094544,0.125 6.86396498,0.125 C3.72244526,0.125 0.5,1.46155392 0.5,7.88662118 C0.5,14.3119216 4.18945786,15.2693849 7.29844412,15.2693849 C9.87266889,15.2693849 11.4342751,14.1693108 11.4342751,14.1693108 C11.4986424,14.1337456 11.5056388,14.0438413 11.5056388,14.0025622 L11.5056388,6.8268932 C11.5056388,6.70550491 11.4072222,6.60685506 11.2858339,6.60685506 Z M35.5376059,0.894841997 C35.5376059,0.772404236 35.4405885,0.673637776 35.3192002,0.673637776 L32.6695305,0.673637776 C32.548492,0.673637776 32.4500754,0.772404236 32.4500754,0.894841997 C32.4500754,0.895425034 32.450775,6.01542237 32.450775,6.01542237 L28.3206578,6.01542237 L28.3206578,0.894841997 C28.3206578,0.772404236 28.2231741,0.673637776 28.102019,0.673637776 L25.4524658,0.673637776 C25.3318938,0.673637776 25.2335938,0.772404236 25.2335938,0.894841997 L25.2335938,14.7598106 C25.2335938,14.8821318 25.3318938,14.9817145 25.4524658,14.9817145 L28.102019,14.9817145 C28.2231741,14.9817145 28.3206578,14.8821318 28.3206578,14.7598106 L28.3206578,8.82927533 L32.450775,8.82927533 C32.450775,8.82927533 32.4435454,14.7593442 32.4435454,14.7598106 C32.4435454,14.8821318 32.5418454,14.9817145 32.6630005,14.9817145 L35.318967,14.9817145 C35.4403553,14.9817145 35.5373727,14.8821318 35.5376059,14.7598106 L35.5376059,0.894841997 Z M16.2858422,2.71426712 C16.2858422,1.76018545 15.5208977,0.989177377 14.5771941,0.989177377 C13.6344233,0.989177377 12.8688958,1.76018545 12.8688958,2.71426712 C12.8688958,3.66729933 13.6344233,4.44040634 14.5771941,4.44040634 C15.5208977,4.44040634 16.2858422,3.66729933 16.2858422,2.71426712 Z M16.0963552,11.8350641 L16.0963552,5.43495078 C16.0963552,5.31344587 15.9982884,5.21409638 15.8771333,5.21409638 L13.2358593,5.21409638 C13.1147042,5.21409638 13.0062593,5.3390995 13.0062593,5.4606044 L13.0062593,14.6300266 C13.0062593,14.8995063 13.174174,14.9796156 13.3915301,14.9796156 L15.7712538,14.9796156 C16.0323377,14.9796156 16.0963552,14.851464 16.0963552,14.6257121 L16.0963552,11.8350641 Z M45.6074704,5.2349691 L42.9780903,5.2349691 C42.8575183,5.2349691 42.7593348,5.3343186 42.7593348,5.45663975 L42.7593348,12.2550839 C42.7593348,12.2550839 42.0914077,12.7437855 41.143273,12.7437855 C40.1952549,12.7437855 39.9436162,12.3136208 39.9436162,11.3853093 L39.9436162,5.45663975 C39.9436162,5.3343186 39.845666,5.2349691 39.7249773,5.2349691 L37.0564172,5.2349691 C36.9359617,5.2349691 36.8373119,5.3343186 36.8373119,5.45663975 L36.8373119,11.8342478 C36.8373119,14.5915462 38.3740807,15.2661199 40.4881727,15.2661199 C42.2224744,15.2661199 43.6208302,14.307957 43.6208302,14.307957 C43.6208302,14.307957 43.6874131,14.812867 43.7174978,14.8728032 C43.7476991,14.9325062 43.8261759,14.9927922 43.9109494,14.9927922 L45.6086364,14.9853293 C45.7290919,14.9853293 45.8277417,14.8857466 45.8277417,14.7640085 L45.8269255,5.45663975 C45.8269255,5.3343186 45.7286254,5.2349691 45.6074704,5.2349691 Z M51.7567611,12.7353897 C50.8447747,12.7076372 50.2261725,12.2937975 50.2261725,12.2937975 L50.2261725,7.90306282 C50.2261725,7.90306282 50.8364956,7.52898631 51.5852317,7.46205366 C52.5320837,7.37728009 53.4444199,7.66331802 53.4444199,9.92200319 C53.4444199,12.3038258 53.0326792,12.7738702 51.7567611,12.7353897 Z M52.7938673,4.92351076 C51.3004764,4.92351076 50.2847094,5.58980539 50.2847094,5.58980539 L50.2847094,0.894841997 C50.2847094,0.772404236 50.1868758,0.673637776 50.0660706,0.673637776 L47.408938,0.673637776 C47.2881327,0.673637776 47.1899493,0.772404236 47.1899493,0.894841997 L47.1899493,14.7598106 C47.1899493,14.8821318 47.2881327,14.9817145 47.4092878,14.9817145 L49.2528506,14.9817145 C49.3358751,14.9817145 49.3987265,14.9389196 49.4451362,14.863941 C49.4909629,14.7894289 49.5570793,14.2246993 49.5570793,14.2246993 C49.5570793,14.2246993 50.643627,15.2543426 52.7004648,15.2543426 C55.1151706,15.2543426 56.5,14.0294985 56.5,9.75572105 C56.5,5.48194355 54.2883076,4.92351076 52.7938673,4.92351076 Z M23.7116341,5.21281369 L21.7240611,5.21281369 C21.7240611,5.21281369 21.7210293,2.5876315 21.7210293,2.58704846 C21.7210293,2.48769896 21.6698387,2.43802421 21.5549804,2.43802421 L18.8464239,2.43802421 C18.7411274,2.43802421 18.6845728,2.48431735 18.6845728,2.58553256 L18.6845728,5.29898656 C18.6845728,5.29898656 17.3272628,5.62665333 17.2354928,5.6531232 C17.1440726,5.67959308 17.0767901,5.76390023 17.0767901,5.8644158 L17.0767901,7.56956568 C17.0767901,7.69223665 17.1747403,7.79111972 17.2958954,7.79111972 L18.6845728,7.79111972 L18.6845728,11.8931345 C18.6845728,14.9399691 20.8217531,15.2393002 22.2639533,15.2393002 C22.9229017,15.2393002 23.7111677,15.0276578 23.8413015,14.9796156 C23.9200115,14.9506969 23.9657216,14.8691884 23.9657216,14.7808 L23.9679371,12.9050535 C23.9679371,12.7827323 23.864623,12.6837326 23.7482488,12.6837326 C23.6324577,12.6837326 23.3361583,12.730842 23.0311134,12.730842 C22.0548763,12.730842 21.7240611,12.2768895 21.7240611,11.6893048 C21.7240611,11.1021866 21.7239445,7.79111972 21.7239445,7.79111972 L23.7116341,7.79111972 C23.8327892,7.79111972 23.930856,7.69223665 23.930856,7.56956568 L23.930856,5.4337847 C23.930856,5.31146355 23.8327892,5.21281369 23.7116341,5.21281369 Z" id="github-ext"></path>
                        </g>
                    </g>
                </g>
            </g>
        </g>
    </g>
</svg>
