<?xml version="1.0" encoding="UTF-8" standalone="no"?>
<svg width="23px" height="19px" viewBox="0 0 23 19" version="1.1" xmlns="http://www.w3.org/2000/svg" xmlns:xlink="http://www.w3.org/1999/xlink" xmlns:sketch="http://www.bohemiancoding.com/sketch/ns">
    <!-- Generator: Sketch 3.3.1 (12005) - http://www.bohemiancoding.com/sketch -->
    <g stroke="none" stroke-width="1" fill-rule="evenodd" sketch:type="MSPage" >
        <g sketch:type="MSArtboardGroup" transform="translate(-362.000000, -494.000000)">
            <g sketch:type="MSLayerGroup" transform="translate(-8.000000, 0.000000)">
                <g transform="translate(227.000000, 387.000000)" sketch:type="MSShapeGroup">
                    <g transform="translate(105.500000, 107.000000)">
                        <path d="M53.2099196,0.948383275 C50.7206964,0.948383275 48.7026875,2.9663922 48.7026875,5.4554547 C48.7026875,5.8087047 48.7425446,6.15263328 48.8193661,6.4825797 C45.0735179,6.29462435 41.7524375,4.50024935 39.5293571,1.7733297 C39.1413929,2.43908863 38.9192054,3.21324935 38.9192054,4.03932078 C38.9192054,5.60291006 39.7149018,6.98256185 40.9242768,7.79079399 C40.1854732,7.76741006 39.4904643,7.56466899 38.8828036,7.22700828 C38.8824821,7.2458922 38.8824018,7.26469578 38.8824018,7.28374042 C38.8824018,9.46752613 40.4360268,11.2892226 42.4979107,11.7032226 C42.1196696,11.8061601 41.7215,11.8612851 41.3104732,11.8612851 C41.0199821,11.8612851 40.7376071,11.8329993 40.4624643,11.7804458 C41.0359732,13.571044 42.7004911,14.8741958 44.6727768,14.9105976 C43.1302411,16.1194101 41.1868036,16.8399726 39.0751786,16.8399726 C38.7114018,16.8399726 38.3526071,16.8185976 38,16.7770529 C39.994625,18.0558565 42.3637946,18.8019726 44.9091071,18.8019726 C53.1994732,18.8019726 57.7329018,11.9340886 57.7329018,5.9780172 C57.7329018,5.78266899 57.7284821,5.58828506 57.7198839,5.39502613 C58.6004375,4.75948149 59.3645536,3.96563328 59.9688393,3.06177613 C59.1605268,3.42024935 58.2919464,3.66260649 57.3801339,3.77149042 C58.31075,3.21373149 59.0254464,2.33044578 59.3619018,1.27792792 C58.4910714,1.79446363 57.5264643,2.16957078 56.4998214,2.37174935 C55.6776875,1.49569578 54.5062411,0.948383275 53.2099196,0.948383275" id="Twitter"></path>
                    </g>
                </g>
            </g>
        </g>
    </g>
</svg>
